<svg width="16" height="16" viewBox="0 0 16 16" fill="none" xmlns="http://www.w3.org/2000/svg">
<path fill-rule="evenodd" clip-rule="evenodd" d="M5.20899 2C4.8402 2 4.54124 2.29896 4.54124 2.66775V3.86054H5.20899V3.00163C5.20899 2.81723 5.35847 2.66775 5.54287 2.66775H12.9984C13.1828 2.66775 13.3322 2.81723 13.3322 3.00163V10.4571C13.3322 10.6415 13.1828 10.791 12.9984 10.791H12.0568V11.4588H13.3322C13.701 11.4588 14 11.1598 14 10.791V2.66775C14 2.29896 13.701 2 13.3322 2H5.20899ZM10.3715 5.22432C10.5559 5.22432 10.7053 5.3738 10.7053 5.55819V12.928C10.7053 13.1124 10.5559 13.2619 10.3715 13.2619H3.00163C2.81723 13.2619 2.66775 13.1124 2.66775 12.928V5.55819C2.66775 5.3738 2.81723 5.22432 3.00163 5.22432H10.3715ZM2 5.22432C2 4.85553 2.29896 4.55657 2.66775 4.55657H10.7053C11.0741 4.55657 11.3731 4.85553 11.3731 5.22432V13.2619C11.3731 13.6307 11.0741 13.9297 10.7053 13.9297H2.66775C2.29896 13.9297 2 13.6307 2 13.2619V5.22432ZM8.70018 10.0024C8.70018 9.72367 8.62375 9.49565 8.4709 9.31829C8.31805 9.14093 8.12992 9.03325 7.90653 8.99525L9 7H8.08289L7.16578 8.65321C6.66608 9.56532 6.62199 10.2462 7.03351 10.696C7.21576 10.8987 7.44503 11 7.72134 11C7.99765 11 8.22986 10.905 8.41799 10.715C8.60611 10.5186 8.70018 10.2811 8.70018 10.0024ZM4.39683 8.65321C4.13228 9.1346 4 9.54632 4 9.88836C4 10.2241 4.09112 10.4933 4.27337 10.696C4.45561 10.8987 4.68489 11 4.9612 11C5.23163 11 5.46091 10.905 5.64903 10.715C5.83715 10.5186 5.93122 10.2811 5.93122 10.0024C5.93122 9.72367 5.85773 9.49565 5.71076 9.31829C5.55791 9.14093 5.36684 9.03325 5.13757 8.99525L6.23986 7H5.32275L4.39683 8.65321Z" fill="#4F5E64"/>
</svg>
